<?xml version="1.0" encoding="UTF-8"?>
<svg width="30px" height="34px" viewBox="0 0 30 34" version="1.1" xmlns="http://www.w3.org/2000/svg" xmlns:xlink="http://www.w3.org/1999/xlink">
    <!-- Generator: Sketch 43.2 (39069) - http://www.bohemiancoding.com/sketch -->
    <title>boat-b-pin</title>
    <desc>Created with Sketch.</desc>
    <defs>
        <path d="M24.1044402,16.9435121 C24.5456823,16.9797698 25.0245831,17 25.5439442,17 L25.5439442,18.25 C20.5439442,18.25 19.2939442,16.6875 19.2939442,16.6875 C19.2939442,16.6875 17.4189442,18.25 14.9189442,18.25 C12.4189442,18.25 10.5439442,16.6875 10.5439442,16.6875 C10.5439442,16.6875 9.29394423,18.25 4.29394423,18.25 L4.29394423,17 C4.81330537,17 5.29220611,16.9797698 5.73344827,16.9435121 L3.98557096,11.6998802 C3.81051807,11.1747215 4.0897154,10.5863668 4.60876294,10.3845149 L6.16894423,9.77777778 L6.16894423,4.00742675 C6.16894423,2.89875557 7.06083088,2 8.17641674,2 L21.6614717,2 C22.7701682,2 23.6689442,2.90344712 23.6689442,4.00742675 L23.6689442,9.77777778 L25.2291255,10.3845149 C25.7552086,10.5891028 26.0271856,11.1752758 25.8523175,11.6998802 L24.1044402,16.9435121 Z M14.9189442,17.625 C14.9189442,17.78125 14.9189442,17.9375 14.9189442,18.25 Z M21.1689442,8.80555556 L21.1689442,4.5 L8.66894423,4.5 L8.66894423,8.80555556 L14.9189442,6.375 L21.1689442,8.80555556 Z M19.8994949,24.9497475 L14.9497475,29.8994949 L10,24.9497475 L19.8994949,24.9497475 Z M4.29394423,20.75 C9.29394423,20.75 10.5439442,18.875 10.5439442,18.875 C10.5439442,18.875 12.4189442,20.75 14.9189442,20.75 C14.9189442,21.375 14.9189442,21.375 14.9189442,22 C12.4189442,22 10.5439442,20.4375 10.5439442,20.4375 C10.5439442,20.4375 9.29394423,22 4.29394423,22 L4.29394423,20.75 Z M25.5439442,20.75 L25.5439442,22 C20.5439442,22 19.2939442,20.4375 19.2939442,20.4375 C19.2939442,20.4375 17.4189442,22 14.9189442,22 C14.9189442,21.375 14.9189442,21.375 14.9189442,20.75 C17.4189442,20.75 19.2939442,18.875 19.2939442,18.875 C19.2939442,18.875 20.5439442,20.75 25.5439442,20.75 Z" id="path-1"></path>
        <filter x="-25.0%" y="-16.1%" width="150.1%" height="139.4%" filterUnits="objectBoundingBox" id="filter-2">
            <feMorphology radius="2" operator="dilate" in="SourceAlpha" result="shadowSpreadOuter1"></feMorphology>
            <feOffset dx="0" dy="1" in="shadowSpreadOuter1" result="shadowOffsetOuter1"></feOffset>
            <feGaussianBlur stdDeviation="1" in="shadowOffsetOuter1" result="shadowBlurOuter1"></feGaussianBlur>
            <feComposite in="shadowBlurOuter1" in2="SourceAlpha" operator="out" result="shadowBlurOuter1"></feComposite>
            <feColorMatrix values="0 0 0 0 0   0 0 0 0 0   0 0 0 0 0  0 0 0 0.3 0" type="matrix" in="shadowBlurOuter1"></feColorMatrix>
        </filter>
    </defs>
    <g id="Page-1" stroke="none" stroke-width="1" fill="none" fill-rule="evenodd">
        <g id="boat-b-pin">
            <g id="Boat">
                <use fill="black" fill-opacity="1" filter="url(#filter-2)" xlink:href="#path-1"></use>
                <use fill="#468296" fill-rule="evenodd" xlink:href="#path-1"></use>
                <path stroke="#FFFFFF" stroke-width="2" d="M4.36480748,15.9998674 L4.78476497,17.2597399 L5.73344827,16.9435121 L5.65155243,15.9468712 C5.24620661,15.9801792 4.81749819,15.9981692 4.36480748,15.9998674 L4.36480748,15.9998674 Z M25.473081,15.9998674 L26.8010008,12.0161079 C27.1454276,10.9828276 26.6117896,9.84926166 25.5915718,9.45251027 L24.6689442,9.09371067 L24.6689442,4.00742675 C24.6689442,2.34989771 23.3211915,1 21.6614717,1 L8.17641674,1 C6.51039866,1 5.16894423,2.34461132 5.16894423,4.00742675 L5.16894423,9.09371067 L4.24631668,9.45251027 C3.23159997,9.84712233 2.69279087,10.9838176 3.03688766,12.0161079 L4.36480748,15.9998674 C4.34125136,15.9999557 4.31763031,16 4.29394423,16 L3.29394423,16 L3.29394423,17 L3.29394423,18.25 L3.29394423,19.25 L4.29394423,19.25 C6.60724995,19.25 8.37771494,18.9338455 9.67855961,18.3918269 C10.034192,18.2436468 10.3329907,18.0889317 10.5795899,17.9352646 C10.8011093,18.0732982 11.0577263,18.218675 11.3467306,18.3631772 C12.4525445,18.9160841 13.6546417,19.25 14.9189442,19.25 C16.1832468,19.25 17.385344,18.9160841 18.4911578,18.3631772 C18.7801622,18.218675 19.0367791,18.0732982 19.2582986,17.9352646 C19.5048978,18.0889317 19.8036965,18.2436468 20.1593288,18.3918269 C21.4601735,18.9338455 23.2306385,19.25 25.5439442,19.25 L26.5439442,19.25 L26.5439442,18.25 L26.5439442,17 L26.5439442,16 L25.5439442,16 C25.5202581,16 25.4966371,15.9999557 25.473081,15.9998674 L25.473081,15.9998674 Z M13.9189442,17.625 C13.9189442,17.859375 13.9189442,17.859375 13.9189442,18.25 L14.9189442,18.25 L15.9189442,18.25 L15.9189442,17.625 L14.9189442,17.625 L13.9189442,17.625 Z M14.4099145,5.5 L9.66894423,7.34371067 L9.66894423,5.5 L14.4099145,5.5 Z M15.4279739,5.5 L20.1689442,5.5 L20.1689442,7.34371067 L15.4279739,5.5 Z M15.4279739,5.5 L15.2813905,5.44299533 L14.9189442,5.302044 L14.556498,5.44299533 L14.4099145,5.5 L15.4279739,5.5 Z M20.6066017,25.6568542 L22.3137085,23.9497475 L19.8994949,23.9497475 L10,23.9497475 L7.58578644,23.9497475 L9.29289322,25.6568542 L14.2426407,30.6066017 L14.9497475,31.3137085 L15.6568542,30.6066017 L20.6066017,25.6568542 Z M10.5795899,21.6852646 C10.8011093,21.8232982 11.0577263,21.968675 11.3467306,22.1131772 C12.4525445,22.6660841 13.6546417,23 14.9189442,23 L15.9189442,23 L15.9189442,22 C15.9189442,21.609375 15.9189442,21.609375 15.9189442,21.375 C15.9189442,21.140625 15.9189442,21.140625 15.9189442,20.75 L15.9189442,19.75 L14.9189442,19.75 C14.0270687,19.75 13.1413776,19.4547696 12.30844,18.9550071 C12.0104363,18.7762049 11.7419165,18.584405 11.5092133,18.3940115 C11.3750309,18.2842258 11.2870878,18.20393 11.251051,18.1678932 L10.3885194,17.3053616 L9.71189393,18.3202998 C9.71832852,18.3106479 9.68488299,18.3496677 9.601542,18.4246746 C9.4241456,18.5843314 9.17645879,18.7532087 8.84673063,18.9180728 C7.82057306,19.4311516 6.33261384,19.75 4.29394423,19.75 L3.29394423,19.75 L3.29394423,20.75 L3.29394423,22 L3.29394423,23 L4.29394423,23 C6.60724995,23 8.37771494,22.6838455 9.67855961,22.1418269 C10.034192,21.9936468 10.3329907,21.8389317 10.5795899,21.6852646 Z M19.2582986,21.6852646 C19.5048978,21.8389317 19.8036965,21.9936468 20.1593288,22.1418269 C21.4601735,22.6838455 23.2306385,23 25.5439442,23 L26.5439442,23 L26.5439442,22 L26.5439442,20.75 L26.5439442,19.75 L25.5439442,19.75 C23.5052746,19.75 22.0173154,19.4311516 20.9911578,18.9180728 C20.6614297,18.7532087 20.4137429,18.5843314 20.2363465,18.4246746 C20.1530055,18.3496677 20.1195599,18.3106479 20.1259945,18.3202998 L19.4493691,17.3053616 L18.5868374,18.1678932 C18.5508007,18.20393 18.4628576,18.2842258 18.3286752,18.3940115 C18.0959719,18.584405 17.8274522,18.7762049 17.5294485,18.9550071 C16.6965109,19.4547696 15.8108198,19.75 14.9189442,19.75 L13.9189442,19.75 L13.9189442,20.75 C13.9189442,21.140625 13.9189442,21.140625 13.9189442,21.375 C13.9189442,21.609375 13.9189442,21.609375 13.9189442,22 L13.9189442,23 L14.9189442,23 C16.1832468,23 17.385344,22.6660841 18.4911578,22.1131772 C18.7801622,21.968675 19.0367791,21.8232982 19.2582986,21.6852646 Z"></path>
            </g>
        </g>
    </g>
</svg>