<?xml version="1.0" encoding="UTF-8"?>
<svg width="30px" height="34px" viewBox="0 0 30 34" version="1.1" xmlns="http://www.w3.org/2000/svg" xmlns:xlink="http://www.w3.org/1999/xlink">
    <!-- Generator: Sketch 43.2 (39069) - http://www.bohemiancoding.com/sketch -->
    <title>vehicle-b-pin</title>
    <desc>Created with Sketch.</desc>
    <defs>
        <path d="M6.09728016,8.41118343 L8.21537589,2.84850777 C8.39381116,2.37988987 8.95379885,2 9.46785736,2 L20.5321426,2 C21.0454338,2 21.6065254,2.38077365 21.7846241,2.84850777 L23.902737,8.41122843 C25.6593438,8.6928665 27,10.1910442 27,12.0088755 L27,17.4545455 L25.1538384,17.4545455 L25.1538462,17.4599264 L25.1538462,20.1764372 C25.1538462,21.1835631 24.3344034,22 23.3076923,22 C22.2880897,22 21.4615385,21.1940411 21.4615385,20.1764372 L21.4615385,17.4599264 L21.4615463,17.4545455 L21.4615463,17.4545455 L8.53845383,17.4545455 L8.53846154,17.4599264 L8.53846154,20.1764372 C8.53846154,21.1835631 7.71901879,22 6.69230769,22 C5.67270508,22 4.84615385,21.1940411 4.84615385,20.1764372 L4.84615385,17.4599264 L4.84616165,17.4545455 L3,17.4545455 L3,12.0088755 C3,10.1966378 4.33670425,8.69327549 6.09728016,8.41118343 Z M7.38461538,8.36363636 L22.6153846,8.36363636 L20.8615472,3.75759868 C20.6834484,3.28986456 20.1241638,2.90909091 19.6131016,2.90909091 L10.3868984,2.90909091 C9.88224088,2.90909091 9.31688809,3.28898078 9.13845281,3.75759868 L7.38461538,8.36363636 Z M6.69230769,14.7272727 C7.71191031,14.7272727 8.53846154,13.913245 8.53846154,12.9090909 C8.53846154,11.9049368 7.71191031,11.0909091 6.69230769,11.0909091 C5.67270508,11.0909091 4.84615385,11.9049368 4.84615385,12.9090909 C4.84615385,13.913245 5.67270508,14.7272727 6.69230769,14.7272727 Z M23.3076923,14.7272727 C24.3272949,14.7272727 25.1538462,13.913245 25.1538462,12.9090909 C25.1538462,11.9049368 24.3272949,11.0909091 23.3076923,11.0909091 C22.2880897,11.0909091 21.4615385,11.9049368 21.4615385,12.9090909 C21.4615385,13.913245 22.2880897,14.7272727 23.3076923,14.7272727 Z M19.8994949,24.9497475 L14.9497475,29.8994949 L10,24.9497475 L19.8994949,24.9497475 Z" id="path-1"></path>
        <filter x="-22.9%" y="-16.1%" width="145.8%" height="139.4%" filterUnits="objectBoundingBox" id="filter-2">
            <feMorphology radius="2" operator="dilate" in="SourceAlpha" result="shadowSpreadOuter1"></feMorphology>
            <feOffset dx="0" dy="1" in="shadowSpreadOuter1" result="shadowOffsetOuter1"></feOffset>
            <feGaussianBlur stdDeviation="1" in="shadowOffsetOuter1" result="shadowBlurOuter1"></feGaussianBlur>
            <feComposite in="shadowBlurOuter1" in2="SourceAlpha" operator="out" result="shadowBlurOuter1"></feComposite>
            <feColorMatrix values="0 0 0 0 0   0 0 0 0 0   0 0 0 0 0  0 0 0 0.3 0" type="matrix" in="shadowBlurOuter1"></feColorMatrix>
        </filter>
    </defs>
    <g id="Page-1" stroke="none" stroke-width="1" fill="none" fill-rule="evenodd">
        <g id="vehicle-b-pin">
            <g id="Car">
                <use fill="black" fill-opacity="1" filter="url(#filter-2)" xlink:href="#path-1"></use>
                <use fill="#00BFFF" fill-rule="evenodd" xlink:href="#path-1"></use>
                <path stroke="#FFFFFF" stroke-width="2" d="M5.3527904,7.55620347 C3.39541805,8.13117518 2,9.92153971 2,12.0088755 L2,17.4545455 L2,18.4545455 L3,18.4545455 L3.84615451,18.4545455 L3.84615385,20.1764372 C3.84615385,21.746386 5.12035537,23 6.69230769,23 C8.26670004,23 9.53846154,21.7404509 9.53846154,20.1764372 L9.53846154,18.4545455 L20.4615391,18.4545455 L20.4615385,20.1764372 C20.4615385,21.746386 21.73574,23 23.3076923,23 C24.8820847,23 26.1538462,21.7404509 26.1538462,20.1764372 L26.1538462,18.4545455 L27,18.4545455 L28,18.4545455 L28,17.4545455 L28,12.0088755 C28,9.91921457 26.6039475,8.1309454 24.647231,7.55625964 L22.7191688,2.49266192 C22.3921609,1.63385329 21.4570298,1 20.5321426,1 L9.46785736,1 C8.54215366,1 7.60815903,1.63301314 7.28083122,2.49266192 L5.3527904,7.55620347 Z M8.83542443,7.36363636 L10.0729975,4.11344453 C10.1018144,4.03776364 10.291807,3.90909091 10.3868984,3.90909091 L19.6131016,3.90909091 C19.7113171,3.90909091 19.8973637,4.03560515 19.9270025,4.11344453 L21.1645756,7.36363636 L8.83542443,7.36363636 Z M6.69230769,13.7272727 C6.22160122,13.7272727 5.84615385,13.3575139 5.84615385,12.9090909 C5.84615385,12.4606679 6.22160122,12.0909091 6.69230769,12.0909091 C7.16301416,12.0909091 7.53846154,12.4606679 7.53846154,12.9090909 C7.53846154,13.3575139 7.16301416,13.7272727 6.69230769,13.7272727 Z M23.3076923,13.7272727 C22.8369858,13.7272727 22.4615385,13.3575139 22.4615385,12.9090909 C22.4615385,12.4606679 22.8369858,12.0909091 23.3076923,12.0909091 C23.7783988,12.0909091 24.1538462,12.4606679 24.1538462,12.9090909 C24.1538462,13.3575139 23.7783988,13.7272727 23.3076923,13.7272727 Z M20.6066017,25.6568542 L22.3137085,23.9497475 L19.8994949,23.9497475 L10,23.9497475 L7.58578644,23.9497475 L9.29289322,25.6568542 L14.2426407,30.6066017 L14.9497475,31.3137085 L15.6568542,30.6066017 L20.6066017,25.6568542 Z"></path>
            </g>
        </g>
    </g>
</svg>