<?xml version="1.0" encoding="UTF-8"?>
<svg width="26px" height="32px" viewBox="0 0 26 32" version="1.1" xmlns="http://www.w3.org/2000/svg" xmlns:xlink="http://www.w3.org/1999/xlink">
    <!-- Generator: Sketch 43.2 (39069) - http://www.bohemiancoding.com/sketch -->
    <title>vehicle-pin</title>
    <desc>Created with Sketch.</desc>
    <defs>
        <path d="M4.09728016,8.41118343 L6.21537589,2.84850777 C6.39381116,2.37988987 6.95379885,2 7.46785736,2 L18.5321426,2 C19.0454338,2 19.6065254,2.38077365 19.7846241,2.84850777 L21.902737,8.41122843 C23.6593438,8.6928665 25,10.1910442 25,12.0088755 L25,17.4545455 L23.1538384,17.4545455 L23.1538462,17.4599264 L23.1538462,20.1764372 C23.1538462,21.1835631 22.3344034,22 21.3076923,22 C20.2880897,22 19.4615385,21.1940411 19.4615385,20.1764372 L19.4615385,17.4599264 L19.4615463,17.4545455 L19.4615463,17.4545455 L6.53845383,17.4545455 L6.53846154,17.4599264 L6.53846154,20.1764372 C6.53846154,21.1835631 5.71901879,22 4.69230769,22 C3.67270508,22 2.84615385,21.1940411 2.84615385,20.1764372 L2.84615385,17.4599264 L2.84616165,17.4545455 L1,17.4545455 L1,12.0088755 C1,10.1966378 2.33670425,8.69327549 4.09728016,8.41118343 Z M5.38461538,8.36363636 L20.6153846,8.36363636 L18.8615472,3.75759868 C18.6834484,3.28986456 18.1241638,2.90909091 17.6131016,2.90909091 L8.38689843,2.90909091 C7.88224088,2.90909091 7.31688809,3.28898078 7.13845281,3.75759868 L5.38461538,8.36363636 Z M4.69230769,14.7272727 C5.71191031,14.7272727 6.53846154,13.913245 6.53846154,12.9090909 C6.53846154,11.9049368 5.71191031,11.0909091 4.69230769,11.0909091 C3.67270508,11.0909091 2.84615385,11.9049368 2.84615385,12.9090909 C2.84615385,13.913245 3.67270508,14.7272727 4.69230769,14.7272727 Z M21.3076923,14.7272727 C22.3272949,14.7272727 23.1538462,13.913245 23.1538462,12.9090909 C23.1538462,11.9049368 22.3272949,11.0909091 21.3076923,11.0909091 C20.2880897,11.0909091 19.4615385,11.9049368 19.4615385,12.9090909 C19.4615385,13.913245 20.2880897,14.7272727 21.3076923,14.7272727 Z M17.8994949,24.9497475 L12.9497475,29.8994949 L8,24.9497475 L17.8994949,24.9497475 Z" id="path-1"></path>
        <filter x="-14.6%" y="-9.0%" width="129.2%" height="125.1%" filterUnits="objectBoundingBox" id="filter-2">
            <feOffset dx="0" dy="1" in="SourceAlpha" result="shadowOffsetOuter1"></feOffset>
            <feGaussianBlur stdDeviation="1" in="shadowOffsetOuter1" result="shadowBlurOuter1"></feGaussianBlur>
            <feColorMatrix values="0 0 0 0 0   0 0 0 0 0   0 0 0 0 0  0 0 0 0.3 0" type="matrix" in="shadowBlurOuter1"></feColorMatrix>
        </filter>
    </defs>
    <g id="Page-1" stroke="none" stroke-width="1" fill="none" fill-rule="evenodd">
        <g id="vehicle-pin">
            <g id="Combined-Shape">
                <use fill="black" fill-opacity="1" filter="url(#filter-2)" xlink:href="#path-1"></use>
                <use fill="#00FFC6" fill-rule="evenodd" xlink:href="#path-1"></use>
            </g>
        </g>
    </g>
</svg>